<svg width="102" height="32" viewBox="0 0 102 32" fill="none" xmlns="http://www.w3.org/2000/svg">
<path fill-rule="evenodd" clip-rule="evenodd" d="M16.8744 4.68164C17.5025 4.05349 18.521 4.05349 19.1491 4.68164L25.0312 10.5639L19.1223 16.2042C18.4798 16.8176 17.4616 16.7939 16.8483 16.1514C16.2349 15.5088 16.2586 14.4906 16.9012 13.8773L18.7154 12.1455H14.7948C11.6561 12.1455 9.11165 14.69 9.11165 17.8287C9.11165 20.9675 11.6561 23.5119 14.7948 23.5119H22.7299C23.6181 23.5119 24.3385 24.232 24.3385 25.1205C24.3385 26.0087 23.6181 26.7287 22.7299 26.7287H14.7948C9.87946 26.7287 5.89478 22.7442 5.89478 17.8287C5.89478 12.9134 9.87946 8.92864 14.7948 8.92864H18.8467L16.8744 6.95634C16.2463 6.32819 16.2463 5.30978 16.8744 4.68164Z" fill="#1F8459"/>
<path d="M37.2025 14.6547C37.5358 14.1206 37.9677 13.7018 38.4985 13.3983C39.0415 13.0948 39.6587 12.9431 40.3498 12.9431V15.6198H39.6648C38.8502 15.6198 38.2331 15.808 37.8135 16.1843C37.4062 16.5607 37.2025 17.2162 37.2025 18.1509V23.1767H34.6106V13.0887H37.2025V14.6547Z" fill="#1F8459"/>
<path d="M51.6302 17.9142C51.6302 18.2784 51.6055 18.6062 51.5561 18.8975H44.0581C44.1198 19.6259 44.379 20.1965 44.8356 20.6092C45.2923 21.022 45.8539 21.2283 46.5204 21.2283C47.4831 21.2283 48.1681 20.8216 48.5754 20.0083H51.371C51.0747 20.9795 50.507 21.7807 49.6677 22.4119C48.8284 23.0311 47.7978 23.3406 46.5759 23.3406C45.5885 23.3406 44.6999 23.1282 43.91 22.7033C43.1324 22.2663 42.5214 21.6532 42.0771 20.8641C41.6451 20.0751 41.4291 19.1646 41.4291 18.1327C41.4291 17.0887 41.6451 16.1722 42.0771 15.3831C42.5091 14.594 43.1139 13.9871 43.8914 13.5622C44.669 13.1373 45.5638 12.9248 46.5759 12.9248C47.551 12.9248 48.4211 13.1312 49.1864 13.544C49.9639 13.9567 50.5625 14.5455 50.9822 15.3103C51.4142 16.0629 51.6302 16.9309 51.6302 17.9142ZM48.9457 17.1858C48.9333 16.5303 48.6927 16.0083 48.2236 15.6198C47.7546 15.2192 47.1807 15.0189 46.5019 15.0189C45.8601 15.0189 45.317 15.2132 44.8727 15.6016C44.4407 15.978 44.1753 16.506 44.0766 17.1858H48.9457Z" fill="#1F8459"/>
<path d="M58.2245 15.1828H56.4287V23.1767H53.7997V15.1828H52.6334V13.0887H53.7997V12.5789C53.7997 11.3406 54.1577 10.4302 54.8735 9.84746C55.5894 9.26476 56.6693 8.99162 58.1134 9.02804V11.1767C57.4839 11.1646 57.0458 11.2678 56.7989 11.4863C56.5521 11.7048 56.4287 12.0994 56.4287 12.6699V13.0887H58.2245V15.1828Z" fill="#1F8459"/>
<path d="M69.5868 13.0887V23.1767H66.9764V21.9021C66.6432 22.3391 66.205 22.6851 65.6619 22.94C65.1312 23.1828 64.5511 23.3042 63.9216 23.3042C63.1194 23.3042 62.4097 23.1403 61.7926 22.8125C61.1754 22.4726 60.6879 21.981 60.33 21.3376C59.9844 20.682 59.8116 19.9051 59.8116 19.0068V13.0887H62.4035V18.6426C62.4035 19.4438 62.6072 20.0629 63.0145 20.5C63.4218 20.9248 63.9772 21.1373 64.6807 21.1373C65.3966 21.1373 65.9581 20.9248 66.3654 20.5C66.7728 20.0629 66.9764 19.4438 66.9764 18.6426V13.0887H69.5868Z" fill="#1F8459"/>
<path d="M77.8279 12.9431C79.0498 12.9431 80.0372 13.3255 80.7901 14.0902C81.543 14.8429 81.9194 15.899 81.9194 17.2587V23.1767H79.3275V17.6047C79.3275 16.8034 79.1238 16.1904 78.7165 15.7655C78.3092 15.3285 77.7538 15.11 77.0503 15.11C76.3344 15.11 75.7667 15.3285 75.347 15.7655C74.9397 16.1904 74.7361 16.8034 74.7361 17.6047V23.1767H72.1442V13.0887H74.7361V14.3452C75.0817 13.9082 75.5198 13.5682 76.0506 13.3255C76.5936 13.0705 77.1861 12.9431 77.8279 12.9431Z" fill="#1F8459"/>
<path d="M83.7177 18.0963C83.7177 17.0766 83.9213 16.1722 84.3286 15.3831C84.7483 14.594 85.316 13.9871 86.0319 13.5622C86.7477 13.1373 87.5438 12.9248 88.4202 12.9248C89.0866 12.9248 89.7223 13.0705 90.3271 13.3619C90.9318 13.6411 91.4132 14.0174 91.7711 14.4909V9.70179H94.4001V23.1767H91.7711V21.6836C91.4502 22.1813 90.9997 22.5819 90.4196 22.8854C89.8395 23.1889 89.1669 23.3406 88.4016 23.3406C87.5377 23.3406 86.7477 23.1221 86.0319 22.6851C85.316 22.2481 84.7483 21.635 84.3286 20.8459C83.9213 20.0447 83.7177 19.1282 83.7177 18.0963ZM91.7896 18.1327C91.7896 17.5136 91.6662 16.9855 91.4194 16.5485C91.1725 16.0993 90.8393 15.7594 90.4196 15.5288C90 15.286 89.5495 15.1646 89.0681 15.1646C88.5868 15.1646 88.1424 15.2799 87.7351 15.5106C87.3278 15.7412 86.9946 16.0811 86.7354 16.5303C86.4886 16.9673 86.3651 17.4893 86.3651 18.0963C86.3651 18.7033 86.4886 19.2374 86.7354 19.6987C86.9946 20.1479 87.3278 20.4939 87.7351 20.7367C88.1548 20.9795 88.5991 21.1009 89.0681 21.1009C89.5495 21.1009 90 20.9855 90.4196 20.7549C90.8393 20.5121 91.1725 20.1722 91.4194 19.7352C91.6662 19.286 91.7896 18.7518 91.7896 18.1327Z" fill="#1F8459"/>
</svg>
